<?xml version="1.0" encoding="utf-8"?>
<!-- Generator: Adobe Illustrator 21.1.0, SVG Export Plug-In . SVG Version: 6.00 Build 0)  -->
<svg version="1.1" xmlns="http://www.w3.org/2000/svg" xmlns:xlink="http://www.w3.org/1999/xlink" x="0px" y="0px"
	 viewBox="0 0 630.9 594.9" style="enable-background:new 0 0 630.9 594.9;" xml:space="preserve">
<style type="text/css">
	.st0{fill:none;}
	.st1{fill:#222221;}
</style>
<g id="Layer_1">
</g>
<g id="Layer_2">
	<g>
		<path class="st0" d="M448.5,445.4c0,7.8-6.3,14.1-14.1,14.1s-14.1-6.3-14.1-14.1s6.3-14.1,14.1-14.1S448.5,437.6,448.5,445.4z"/>
		<rect x="91.8" y="262" class="st0" width="453.3" height="102.5"/>
		<path class="st0" d="M266.7,438.3c-7.2,0-13.1,5.9-13.1,13.1c0,7.2,5.9,13.1,13.1,13.1s13.1-5.9,13.1-13.1
			C279.8,444.1,273.9,438.3,266.7,438.3z M266.7,438.3c-7.2,0-13.1,5.9-13.1,13.1c0,7.2,5.9,13.1,13.1,13.1s13.1-5.9,13.1-13.1
			C279.8,444.1,273.9,438.3,266.7,438.3z M81.1,413.5c-3.2,0-5.9,2.6-5.9,5.9c0,3.2,2.6,5.9,5.9,5.9c3.2,0,5.9-2.6,5.9-5.9
			C87,416.1,84.3,413.5,81.1,413.5z M266.7,438.3c-7.2,0-13.1,5.9-13.1,13.1c0,7.2,5.9,13.1,13.1,13.1s13.1-5.9,13.1-13.1
			C279.8,444.1,273.9,438.3,266.7,438.3z M279,175.5c-8.4,0-15.2,6.8-15.2,15.2c0,8.4,6.8,15.2,15.2,15.2c8.4,0,15.2-6.8,15.2-15.2
			C294.2,182.3,287.4,175.5,279,175.5z M279,175.5c-8.4,0-15.2,6.8-15.2,15.2c0,8.4,6.8,15.2,15.2,15.2c8.4,0,15.2-6.8,15.2-15.2
			C294.2,182.3,287.4,175.5,279,175.5z M266.7,438.3c-7.2,0-13.1,5.9-13.1,13.1c0,7.2,5.9,13.1,13.1,13.1s13.1-5.9,13.1-13.1
			C279.8,444.1,273.9,438.3,266.7,438.3z M81.1,413.5c-3.2,0-5.9,2.6-5.9,5.9c0,3.2,2.6,5.9,5.9,5.9c3.2,0,5.9-2.6,5.9-5.9
			C87,416.1,84.3,413.5,81.1,413.5z M81.1,413.5c-3.2,0-5.9,2.6-5.9,5.9c0,3.2,2.6,5.9,5.9,5.9c3.2,0,5.9-2.6,5.9-5.9
			C87,416.1,84.3,413.5,81.1,413.5z M148.3,104.6c-7.8,0-14.1,6.3-14.1,14.1s6.3,14.1,14.1,14.1s14.1-6.3,14.1-14.1
			S156,104.6,148.3,104.6z M266.7,438.3c-7.2,0-13.1,5.9-13.1,13.1c0,7.2,5.9,13.1,13.1,13.1s13.1-5.9,13.1-13.1
			C279.8,444.1,273.9,438.3,266.7,438.3z M279,175.5c-8.4,0-15.2,6.8-15.2,15.2c0,8.4,6.8,15.2,15.2,15.2c8.4,0,15.2-6.8,15.2-15.2
			C294.2,182.3,287.4,175.5,279,175.5z M442.4,148.1c-8.4,0-15.2,6.8-15.2,15.2s6.8,15.2,15.2,15.2c8.4,0,15.2-6.8,15.2-15.2
			S450.8,148.1,442.4,148.1z M442.4,148.1c-8.4,0-15.2,6.8-15.2,15.2s6.8,15.2,15.2,15.2c8.4,0,15.2-6.8,15.2-15.2
			S450.8,148.1,442.4,148.1z M279,175.5c-8.4,0-15.2,6.8-15.2,15.2c0,8.4,6.8,15.2,15.2,15.2c8.4,0,15.2-6.8,15.2-15.2
			C294.2,182.3,287.4,175.5,279,175.5z M266.7,438.3c-7.2,0-13.1,5.9-13.1,13.1c0,7.2,5.9,13.1,13.1,13.1s13.1-5.9,13.1-13.1
			C279.8,444.1,273.9,438.3,266.7,438.3z M148.3,104.6c-7.8,0-14.1,6.3-14.1,14.1s6.3,14.1,14.1,14.1s14.1-6.3,14.1-14.1
			S156,104.6,148.3,104.6z M81.1,413.5c-3.2,0-5.9,2.6-5.9,5.9c0,3.2,2.6,5.9,5.9,5.9c3.2,0,5.9-2.6,5.9-5.9
			C87,416.1,84.3,413.5,81.1,413.5z M23.2,289.2c-3.2,0-5.9,2.6-5.9,5.9c0,3.2,2.6,5.9,5.9,5.9c3.2,0,5.9-2.6,5.9-5.9
			C29.1,291.8,26.4,289.2,23.2,289.2z M81.1,413.5c-3.2,0-5.9,2.6-5.9,5.9c0,3.2,2.6,5.9,5.9,5.9c3.2,0,5.9-2.6,5.9-5.9
			C87,416.1,84.3,413.5,81.1,413.5z M148.3,104.6c-7.8,0-14.1,6.3-14.1,14.1s6.3,14.1,14.1,14.1s14.1-6.3,14.1-14.1
			S156,104.6,148.3,104.6z M266.7,438.3c-7.2,0-13.1,5.9-13.1,13.1c0,7.2,5.9,13.1,13.1,13.1s13.1-5.9,13.1-13.1
			C279.8,444.1,273.9,438.3,266.7,438.3z M279,175.5c-8.4,0-15.2,6.8-15.2,15.2c0,8.4,6.8,15.2,15.2,15.2c8.4,0,15.2-6.8,15.2-15.2
			C294.2,182.3,287.4,175.5,279,175.5z M442.4,148.1c-8.4,0-15.2,6.8-15.2,15.2s6.8,15.2,15.2,15.2c8.4,0,15.2-6.8,15.2-15.2
			S450.8,148.1,442.4,148.1z M609.3,326.6c-3.5,0-6.3,2.8-6.3,6.3s2.8,6.3,6.3,6.3c3.5,0,6.3-2.8,6.3-6.3S612.8,326.6,609.3,326.6z
			 M307.8,19.2c0-5.9,4.8-10.8,10.8-10.8H12.9v286.6c0-5.7,4.6-10.3,10.3-10.3c5,0,9.2,3.6,10.1,8.4l55.1,3.5v-38.1h111.8L119,219.8
			l1.9-4l89.5,42.8h57.8L158.9,133.8c-3,2.1-6.7,3.4-10.6,3.4c-10.2,0-18.5-8.3-18.5-18.5c0-4.8,1.9-9.2,4.9-12.5L91.4,56.6l3.3-2.9
			l43.4,49.5c2.9-2,6.4-3.1,10.2-3.1c10.2,0,18.5,8.3,18.5,18.5c0,4.6-1.7,8.9-4.6,12.1l111.9,127.8h23.5l-14.9-48.7
			c-1.2,0.2-2.5,0.4-3.7,0.4c-10.8,0-19.6-8.8-19.6-19.6c0-8.1,4.9-15.1,12-18.1L237.8,62.5l4.2-1.3l33.6,110.2
			c1.1-0.2,2.2-0.3,3.4-0.3c10.8,0,19.6,8.8,19.6,19.6c0,8-4.8,14.8-11.6,17.9l15.2,50h12.5l1.5-228.9
			C311.4,28.6,307.8,24.3,307.8,19.2z M318.6,12.9c-3.5,0-6.3,2.9-6.3,6.3c0,3.5,2.8,6.3,6.3,6.3s6.3-2.8,6.3-6.3
			C324.9,15.8,322.1,12.9,318.6,12.9z M318.6,8.5c5.9,0,10.8,4.8,10.8,10.8c0,5.2-3.8,9.6-8.8,10.6l-1.5,228.8h9.9l58.5-175.1
			l4.2,1.4l-58,173.7h10l59.9-100.5l3.8,2.3l-58.6,98.2h8.5l70.8-82c-3.2-3.5-5.2-8.2-5.2-13.3c0-10.8,8.8-19.6,19.6-19.6
			c4.1,0,7.9,1.3,11.1,3.5l27-31.3l3.3,2.9L456.8,150c3.2,3.5,5.2,8.1,5.2,13.2c0,10.8-8.8,19.6-19.6,19.6c-4.1,0-7.9-1.2-11-3.4
			l-68.4,79.1h21.1l96.3-67.9l2.5,3.6l-91.2,64.3h33.6l102.1-47.1c0-0.4-0.1-0.8-0.1-1.2c0-5.9,4.8-10.8,10.8-10.8
			c3.1,0,5.9,1.3,7.8,3.4l18.6-8.6l1.8,4l-18.1,8.4c0.4,1.1,0.6,2.3,0.6,3.6c0,5.9-4.8,10.8-10.8,10.8c-4,0-7.4-2.2-9.3-5.3
			L436,258.6h112.5v67.7l50.6,3.7c1.3-4.4,5.4-7.7,10.3-7.7c5.9,0,10.8,4.8,10.8,10.8V8.5H318.6z M538.2,203.9
			c-3.5,0-6.3,2.8-6.3,6.3c0,3.5,2.9,6.4,6.3,6.4c3.5,0,6.3-2.9,6.3-6.4C544.5,206.8,541.7,203.9,538.2,203.9z M23.2,289.2
			c-3.2,0-5.9,2.6-5.9,5.9c0,3.2,2.6,5.9,5.9,5.9c3.2,0,5.9-2.6,5.9-5.9C29.1,291.8,26.4,289.2,23.2,289.2z M81.1,413.5
			c-3.2,0-5.9,2.6-5.9,5.9c0,3.2,2.6,5.9,5.9,5.9c3.2,0,5.9-2.6,5.9-5.9C87,416.1,84.3,413.5,81.1,413.5z M148.3,104.6
			c-7.8,0-14.1,6.3-14.1,14.1s6.3,14.1,14.1,14.1s14.1-6.3,14.1-14.1S156,104.6,148.3,104.6z M266.7,438.3
			c-7.2,0-13.1,5.9-13.1,13.1c0,7.2,5.9,13.1,13.1,13.1s13.1-5.9,13.1-13.1C279.8,444.1,273.9,438.3,266.7,438.3z M279,175.5
			c-8.4,0-15.2,6.8-15.2,15.2c0,8.4,6.8,15.2,15.2,15.2c8.4,0,15.2-6.8,15.2-15.2C294.2,182.3,287.4,175.5,279,175.5z M442.4,148.1
			c-8.4,0-15.2,6.8-15.2,15.2s6.8,15.2,15.2,15.2c8.4,0,15.2-6.8,15.2-15.2S450.8,148.1,442.4,148.1z M538.2,203.9
			c-3.5,0-6.3,2.8-6.3,6.3c0,3.5,2.9,6.4,6.3,6.4c3.5,0,6.3-2.9,6.3-6.4C544.5,206.8,541.7,203.9,538.2,203.9z M609.3,326.6
			c-3.5,0-6.3,2.8-6.3,6.3s2.8,6.3,6.3,6.3c3.5,0,6.3-2.8,6.3-6.3S612.8,326.6,609.3,326.6z M23.2,289.2c-3.2,0-5.9,2.6-5.9,5.9
			c0,3.2,2.6,5.9,5.9,5.9c3.2,0,5.9-2.6,5.9-5.9C29.1,291.8,26.4,289.2,23.2,289.2z M81.1,413.5c-3.2,0-5.9,2.6-5.9,5.9
			c0,3.2,2.6,5.9,5.9,5.9c3.2,0,5.9-2.6,5.9-5.9C87,416.1,84.3,413.5,81.1,413.5z M148.3,104.6c-7.8,0-14.1,6.3-14.1,14.1
			s6.3,14.1,14.1,14.1s14.1-6.3,14.1-14.1S156,104.6,148.3,104.6z M266.7,438.3c-7.2,0-13.1,5.9-13.1,13.1c0,7.2,5.9,13.1,13.1,13.1
			s13.1-5.9,13.1-13.1C279.8,444.1,273.9,438.3,266.7,438.3z M279,175.5c-8.4,0-15.2,6.8-15.2,15.2c0,8.4,6.8,15.2,15.2,15.2
			c8.4,0,15.2-6.8,15.2-15.2C294.2,182.3,287.4,175.5,279,175.5z M318.6,12.9c-3.5,0-6.3,2.9-6.3,6.3c0,3.5,2.8,6.3,6.3,6.3
			s6.3-2.8,6.3-6.3C324.9,15.8,322.1,12.9,318.6,12.9z M442.4,148.1c-8.4,0-15.2,6.8-15.2,15.2s6.8,15.2,15.2,15.2
			c8.4,0,15.2-6.8,15.2-15.2S450.8,148.1,442.4,148.1z M538.2,203.9c-3.5,0-6.3,2.8-6.3,6.3c0,3.5,2.9,6.4,6.3,6.4
			c3.5,0,6.3-2.9,6.3-6.4C544.5,206.8,541.7,203.9,538.2,203.9z M609.3,326.6c-3.5,0-6.3,2.8-6.3,6.3s2.8,6.3,6.3,6.3
			c3.5,0,6.3-2.8,6.3-6.3S612.8,326.6,609.3,326.6z M23.2,289.2c-3.2,0-5.9,2.6-5.9,5.9c0,3.2,2.6,5.9,5.9,5.9
			c3.2,0,5.9-2.6,5.9-5.9C29.1,291.8,26.4,289.2,23.2,289.2z M81.1,413.5c-3.2,0-5.9,2.6-5.9,5.9c0,3.2,2.6,5.9,5.9,5.9
			c3.2,0,5.9-2.6,5.9-5.9C87,416.1,84.3,413.5,81.1,413.5z M148.3,104.6c-7.8,0-14.1,6.3-14.1,14.1s6.3,14.1,14.1,14.1
			s14.1-6.3,14.1-14.1S156,104.6,148.3,104.6z M266.7,438.3c-7.2,0-13.1,5.9-13.1,13.1c0,7.2,5.9,13.1,13.1,13.1s13.1-5.9,13.1-13.1
			C279.8,444.1,273.9,438.3,266.7,438.3z M279,175.5c-8.4,0-15.2,6.8-15.2,15.2c0,8.4,6.8,15.2,15.2,15.2c8.4,0,15.2-6.8,15.2-15.2
			C294.2,182.3,287.4,175.5,279,175.5z M318.6,12.9c-3.5,0-6.3,2.9-6.3,6.3c0,3.5,2.8,6.3,6.3,6.3s6.3-2.8,6.3-6.3
			C324.9,15.8,322.1,12.9,318.6,12.9z M442.4,148.1c-8.4,0-15.2,6.8-15.2,15.2s6.8,15.2,15.2,15.2c8.4,0,15.2-6.8,15.2-15.2
			S450.8,148.1,442.4,148.1z M538.2,203.9c-3.5,0-6.3,2.8-6.3,6.3c0,3.5,2.9,6.4,6.3,6.4c3.5,0,6.3-2.9,6.3-6.4
			C544.5,206.8,541.7,203.9,538.2,203.9z M609.3,326.6c-3.5,0-6.3,2.8-6.3,6.3s2.8,6.3,6.3,6.3c3.5,0,6.3-2.8,6.3-6.3
			S612.8,326.6,609.3,326.6z M23.2,289.2c-3.2,0-5.9,2.6-5.9,5.9c0,3.2,2.6,5.9,5.9,5.9c3.2,0,5.9-2.6,5.9-5.9
			C29.1,291.8,26.4,289.2,23.2,289.2z M81.1,413.5c-3.2,0-5.9,2.6-5.9,5.9c0,3.2,2.6,5.9,5.9,5.9c3.2,0,5.9-2.6,5.9-5.9
			C87,416.1,84.3,413.5,81.1,413.5z M148.3,104.6c-7.8,0-14.1,6.3-14.1,14.1s6.3,14.1,14.1,14.1s14.1-6.3,14.1-14.1
			S156,104.6,148.3,104.6z M266.7,438.3c-7.2,0-13.1,5.9-13.1,13.1c0,7.2,5.9,13.1,13.1,13.1s13.1-5.9,13.1-13.1
			C279.8,444.1,273.9,438.3,266.7,438.3z M279,175.5c-8.4,0-15.2,6.8-15.2,15.2c0,8.4,6.8,15.2,15.2,15.2c8.4,0,15.2-6.8,15.2-15.2
			C294.2,182.3,287.4,175.5,279,175.5z M318.6,12.9c-3.5,0-6.3,2.9-6.3,6.3c0,3.5,2.8,6.3,6.3,6.3s6.3-2.8,6.3-6.3
			C324.9,15.8,322.1,12.9,318.6,12.9z M442.4,148.1c-8.4,0-15.2,6.8-15.2,15.2s6.8,15.2,15.2,15.2c8.4,0,15.2-6.8,15.2-15.2
			S450.8,148.1,442.4,148.1z M538.2,203.9c-3.5,0-6.3,2.8-6.3,6.3c0,3.5,2.9,6.4,6.3,6.4c3.5,0,6.3-2.9,6.3-6.4
			C544.5,206.8,541.7,203.9,538.2,203.9z M609.3,326.6c-3.5,0-6.3,2.8-6.3,6.3s2.8,6.3,6.3,6.3c3.5,0,6.3-2.8,6.3-6.3
			S612.8,326.6,609.3,326.6z M23.2,289.2c-3.2,0-5.9,2.6-5.9,5.9c0,3.2,2.6,5.9,5.9,5.9c3.2,0,5.9-2.6,5.9-5.9
			C29.1,291.8,26.4,289.2,23.2,289.2z M81.1,413.5c-3.2,0-5.9,2.6-5.9,5.9c0,3.2,2.6,5.9,5.9,5.9c3.2,0,5.9-2.6,5.9-5.9
			C87,416.1,84.3,413.5,81.1,413.5z M148.3,104.6c-7.8,0-14.1,6.3-14.1,14.1s6.3,14.1,14.1,14.1s14.1-6.3,14.1-14.1
			S156,104.6,148.3,104.6z M225,567.6c-3.5,0-6.3,2.9-6.3,6.4c0,3.5,2.8,6.3,6.3,6.3c3.5,0,6.3-2.8,6.3-6.3
			C231.4,570.4,228.5,567.6,225,567.6z M266.7,438.3c-7.2,0-13.1,5.9-13.1,13.1c0,7.2,5.9,13.1,13.1,13.1s13.1-5.9,13.1-13.1
			C279.8,444.1,273.9,438.3,266.7,438.3z M279,175.5c-8.4,0-15.2,6.8-15.2,15.2c0,8.4,6.8,15.2,15.2,15.2c8.4,0,15.2-6.8,15.2-15.2
			C294.2,182.3,287.4,175.5,279,175.5z M283.6,367.9l-80.1,134.4l-3.8-2.3l78.8-132.2h-9.8L133.1,524.7l-3.3-2.9l133-153.9h-26
			l-97.4,68.7l-2.5-3.6l92.3-65.1h-30L91.2,417.7c0.1,0.5,0.1,1.1,0.1,1.6c0,5.7-4.6,10.3-10.3,10.3c-3.1,0-5.9-1.4-7.8-3.6
			l-23,10.6l-1.8-4l22.8-10.5c-0.3-0.9-0.4-1.8-0.4-2.8c0-5.7,4.6-10.3,10.3-10.3c3.5,0,6.7,1.8,8.5,4.5l99-45.7H88.4v-66.7
			l-55.2-3.5c-1.1,4.5-5.2,7.8-10,7.8c-5.7,0-10.3-4.6-10.3-10.3v289.6H225c-5.9,0-10.8-4.8-10.8-10.8c0-5.9,4.8-10.8,10.8-10.8
			c0.8,0,1.5,0.1,2.2,0.2l32.1-96.2c-6-2.8-10.2-8.8-10.2-15.9c0-9.6,7.8-17.5,17.5-17.5c1.3,0,2.5,0.1,3.7,0.4l22.2-66.4H283.6z
			 M318.6,12.9c-3.5,0-6.3,2.9-6.3,6.3c0,3.5,2.8,6.3,6.3,6.3s6.3-2.8,6.3-6.3C324.9,15.8,322.1,12.9,318.6,12.9z M442.4,148.1
			c-8.4,0-15.2,6.8-15.2,15.2s6.8,15.2,15.2,15.2c8.4,0,15.2-6.8,15.2-15.2S450.8,148.1,442.4,148.1z M538.2,203.9
			c-3.5,0-6.3,2.8-6.3,6.3c0,3.5,2.9,6.4,6.3,6.4c3.5,0,6.3-2.9,6.3-6.4C544.5,206.8,541.7,203.9,538.2,203.9z M609.3,326.6
			c-3.5,0-6.3,2.8-6.3,6.3s2.8,6.3,6.3,6.3c3.5,0,6.3-2.8,6.3-6.3S612.8,326.6,609.3,326.6z M609.3,343.7c-5.5,0-10-4.1-10.7-9.4
			l-50.2-3.6v37.2H439.1l78.8,37.7l-1.9,4l-87.2-41.6h-59.1l54.4,62.1c2.9-2,6.5-3.1,10.2-3.1c10.2,0,18.5,8.3,18.5,18.5
			c0,4.6-1.7,8.9-4.6,12.2l50.1,57.3l-3.3,2.9L445,460.5c-3,2.1-6.7,3.4-10.6,3.4c-10.2,0-18.5-8.3-18.5-18.5
			c0-4.8,1.8-9.2,4.9-12.5l-56.9-65h-28.4l56.7,185.9L388,555l-57.1-187.2h-12.6l-1,148l-4.4,0l1-148h-16.8l-22.6,67.8
			c5.8,2.9,9.7,8.8,9.7,15.7c0,9.6-7.8,17.5-17.5,17.5c-1.1,0-2.2-0.1-3.2-0.3l-32.3,96.6c2.8,1.9,4.6,5.2,4.6,8.8
			c0,5.9-4.8,10.8-10.8,10.8h395V333C620.1,338.9,615.3,343.7,609.3,343.7z M609.3,339.3c3.5,0,6.3-2.8,6.3-6.3s-2.8-6.3-6.3-6.3
			c-3.5,0-6.3,2.8-6.3,6.3S605.8,339.3,609.3,339.3z M538.2,216.6c3.5,0,6.3-2.9,6.3-6.4c0-3.5-2.8-6.3-6.3-6.3
			c-3.5,0-6.3,2.8-6.3,6.3C531.8,213.8,534.7,216.6,538.2,216.6z M442.4,178.5c8.4,0,15.2-6.8,15.2-15.2s-6.8-15.2-15.2-15.2
			c-8.4,0-15.2,6.8-15.2,15.2S434,178.5,442.4,178.5z M318.6,25.6c3.5,0,6.3-2.8,6.3-6.3c0-3.5-2.8-6.3-6.3-6.3s-6.3,2.9-6.3,6.3
			C312.3,22.7,315.1,25.6,318.6,25.6z M279,205.9c8.4,0,15.2-6.8,15.2-15.2c0-8.4-6.8-15.2-15.2-15.2c-8.4,0-15.2,6.8-15.2,15.2
			C263.8,199.1,270.6,205.9,279,205.9z M266.7,464.4c7.2,0,13.1-5.9,13.1-13.1c0-7.2-5.9-13.1-13.1-13.1s-13.1,5.9-13.1,13.1
			C253.6,458.5,259.5,464.4,266.7,464.4z M231.4,573.9c0-3.5-2.9-6.4-6.3-6.4c-3.5,0-6.3,2.9-6.3,6.4c0,3.5,2.8,6.3,6.3,6.3
			C228.5,580.3,231.4,577.4,231.4,573.9z M148.3,104.6c-7.8,0-14.1,6.3-14.1,14.1s6.3,14.1,14.1,14.1s14.1-6.3,14.1-14.1
			S156,104.6,148.3,104.6z M81.1,413.5c-3.2,0-5.9,2.6-5.9,5.9c0,3.2,2.6,5.9,5.9,5.9c3.2,0,5.9-2.6,5.9-5.9
			C87,416.1,84.3,413.5,81.1,413.5z M23.2,289.2c-3.2,0-5.9,2.6-5.9,5.9c0,3.2,2.6,5.9,5.9,5.9c3.2,0,5.9-2.6,5.9-5.9
			C29.1,291.8,26.4,289.2,23.2,289.2z M609.3,326.6c-3.5,0-6.3,2.8-6.3,6.3s2.8,6.3,6.3,6.3c3.5,0,6.3-2.8,6.3-6.3
			S612.8,326.6,609.3,326.6z M538.2,203.9c-3.5,0-6.3,2.8-6.3,6.3c0,3.5,2.9,6.4,6.3,6.4c3.5,0,6.3-2.9,6.3-6.4
			C544.5,206.8,541.7,203.9,538.2,203.9z M442.4,148.1c-8.4,0-15.2,6.8-15.2,15.2s6.8,15.2,15.2,15.2c8.4,0,15.2-6.8,15.2-15.2
			S450.8,148.1,442.4,148.1z M318.6,12.9c-3.5,0-6.3,2.9-6.3,6.3c0,3.5,2.8,6.3,6.3,6.3s6.3-2.8,6.3-6.3
			C324.9,15.8,322.1,12.9,318.6,12.9z M279,175.5c-8.4,0-15.2,6.8-15.2,15.2c0,8.4,6.8,15.2,15.2,15.2c8.4,0,15.2-6.8,15.2-15.2
			C294.2,182.3,287.4,175.5,279,175.5z M266.7,438.3c-7.2,0-13.1,5.9-13.1,13.1c0,7.2,5.9,13.1,13.1,13.1s13.1-5.9,13.1-13.1
			C279.8,444.1,273.9,438.3,266.7,438.3z M148.3,104.6c-7.8,0-14.1,6.3-14.1,14.1s6.3,14.1,14.1,14.1s14.1-6.3,14.1-14.1
			S156,104.6,148.3,104.6z M81.1,413.5c-3.2,0-5.9,2.6-5.9,5.9c0,3.2,2.6,5.9,5.9,5.9c3.2,0,5.9-2.6,5.9-5.9
			C87,416.1,84.3,413.5,81.1,413.5z M23.2,289.2c-3.2,0-5.9,2.6-5.9,5.9c0,3.2,2.6,5.9,5.9,5.9c3.2,0,5.9-2.6,5.9-5.9
			C29.1,291.8,26.4,289.2,23.2,289.2z M609.3,326.6c-3.5,0-6.3,2.8-6.3,6.3s2.8,6.3,6.3,6.3c3.5,0,6.3-2.8,6.3-6.3
			S612.8,326.6,609.3,326.6z M538.2,203.9c-3.5,0-6.3,2.8-6.3,6.3c0,3.5,2.9,6.4,6.3,6.4c3.5,0,6.3-2.9,6.3-6.4
			C544.5,206.8,541.7,203.9,538.2,203.9z M442.4,148.1c-8.4,0-15.2,6.8-15.2,15.2s6.8,15.2,15.2,15.2c8.4,0,15.2-6.8,15.2-15.2
			S450.8,148.1,442.4,148.1z M318.6,12.9c-3.5,0-6.3,2.9-6.3,6.3c0,3.5,2.8,6.3,6.3,6.3s6.3-2.8,6.3-6.3
			C324.9,15.8,322.1,12.9,318.6,12.9z M279,175.5c-8.4,0-15.2,6.8-15.2,15.2c0,8.4,6.8,15.2,15.2,15.2c8.4,0,15.2-6.8,15.2-15.2
			C294.2,182.3,287.4,175.5,279,175.5z M266.7,438.3c-7.2,0-13.1,5.9-13.1,13.1c0,7.2,5.9,13.1,13.1,13.1s13.1-5.9,13.1-13.1
			C279.8,444.1,273.9,438.3,266.7,438.3z M148.3,104.6c-7.8,0-14.1,6.3-14.1,14.1s6.3,14.1,14.1,14.1s14.1-6.3,14.1-14.1
			S156,104.6,148.3,104.6z M81.1,413.5c-3.2,0-5.9,2.6-5.9,5.9c0,3.2,2.6,5.9,5.9,5.9c3.2,0,5.9-2.6,5.9-5.9
			C87,416.1,84.3,413.5,81.1,413.5z M23.2,289.2c-3.2,0-5.9,2.6-5.9,5.9c0,3.2,2.6,5.9,5.9,5.9c3.2,0,5.9-2.6,5.9-5.9
			C29.1,291.8,26.4,289.2,23.2,289.2z M609.3,326.6c-3.5,0-6.3,2.8-6.3,6.3s2.8,6.3,6.3,6.3c3.5,0,6.3-2.8,6.3-6.3
			S612.8,326.6,609.3,326.6z M538.2,203.9c-3.5,0-6.3,2.8-6.3,6.3c0,3.5,2.9,6.4,6.3,6.4c3.5,0,6.3-2.9,6.3-6.4
			C544.5,206.8,541.7,203.9,538.2,203.9z M442.4,148.1c-8.4,0-15.2,6.8-15.2,15.2s6.8,15.2,15.2,15.2c8.4,0,15.2-6.8,15.2-15.2
			S450.8,148.1,442.4,148.1z M318.6,12.9c-3.5,0-6.3,2.9-6.3,6.3c0,3.5,2.8,6.3,6.3,6.3s6.3-2.8,6.3-6.3
			C324.9,15.8,322.1,12.9,318.6,12.9z M279,175.5c-8.4,0-15.2,6.8-15.2,15.2c0,8.4,6.8,15.2,15.2,15.2c8.4,0,15.2-6.8,15.2-15.2
			C294.2,182.3,287.4,175.5,279,175.5z M266.7,438.3c-7.2,0-13.1,5.9-13.1,13.1c0,7.2,5.9,13.1,13.1,13.1s13.1-5.9,13.1-13.1
			C279.8,444.1,273.9,438.3,266.7,438.3z M148.3,104.6c-7.8,0-14.1,6.3-14.1,14.1s6.3,14.1,14.1,14.1s14.1-6.3,14.1-14.1
			S156,104.6,148.3,104.6z M81.1,413.5c-3.2,0-5.9,2.6-5.9,5.9c0,3.2,2.6,5.9,5.9,5.9c3.2,0,5.9-2.6,5.9-5.9
			C87,416.1,84.3,413.5,81.1,413.5z M23.2,289.2c-3.2,0-5.9,2.6-5.9,5.9c0,3.2,2.6,5.9,5.9,5.9c3.2,0,5.9-2.6,5.9-5.9
			C29.1,291.8,26.4,289.2,23.2,289.2z M609.3,326.6c-3.5,0-6.3,2.8-6.3,6.3s2.8,6.3,6.3,6.3c3.5,0,6.3-2.8,6.3-6.3
			S612.8,326.6,609.3,326.6z M538.2,203.9c-3.5,0-6.3,2.8-6.3,6.3c0,3.5,2.9,6.4,6.3,6.4c3.5,0,6.3-2.9,6.3-6.4
			C544.5,206.8,541.7,203.9,538.2,203.9z M442.4,148.1c-8.4,0-15.2,6.8-15.2,15.2s6.8,15.2,15.2,15.2c8.4,0,15.2-6.8,15.2-15.2
			S450.8,148.1,442.4,148.1z M318.6,12.9c-3.5,0-6.3,2.9-6.3,6.3c0,3.5,2.8,6.3,6.3,6.3s6.3-2.8,6.3-6.3
			C324.9,15.8,322.1,12.9,318.6,12.9z M279,175.5c-8.4,0-15.2,6.8-15.2,15.2c0,8.4,6.8,15.2,15.2,15.2c8.4,0,15.2-6.8,15.2-15.2
			C294.2,182.3,287.4,175.5,279,175.5z M266.7,438.3c-7.2,0-13.1,5.9-13.1,13.1c0,7.2,5.9,13.1,13.1,13.1s13.1-5.9,13.1-13.1
			C279.8,444.1,273.9,438.3,266.7,438.3z M148.3,104.6c-7.8,0-14.1,6.3-14.1,14.1s6.3,14.1,14.1,14.1s14.1-6.3,14.1-14.1
			S156,104.6,148.3,104.6z M81.1,413.5c-3.2,0-5.9,2.6-5.9,5.9c0,3.2,2.6,5.9,5.9,5.9c3.2,0,5.9-2.6,5.9-5.9
			C87,416.1,84.3,413.5,81.1,413.5z M23.2,289.2c-3.2,0-5.9,2.6-5.9,5.9c0,3.2,2.6,5.9,5.9,5.9c3.2,0,5.9-2.6,5.9-5.9
			C29.1,291.8,26.4,289.2,23.2,289.2z M609.3,326.6c-3.5,0-6.3,2.8-6.3,6.3s2.8,6.3,6.3,6.3c3.5,0,6.3-2.8,6.3-6.3
			S612.8,326.6,609.3,326.6z M442.4,148.1c-8.4,0-15.2,6.8-15.2,15.2s6.8,15.2,15.2,15.2c8.4,0,15.2-6.8,15.2-15.2
			S450.8,148.1,442.4,148.1z M279,175.5c-8.4,0-15.2,6.8-15.2,15.2c0,8.4,6.8,15.2,15.2,15.2c8.4,0,15.2-6.8,15.2-15.2
			C294.2,182.3,287.4,175.5,279,175.5z M266.7,438.3c-7.2,0-13.1,5.9-13.1,13.1c0,7.2,5.9,13.1,13.1,13.1s13.1-5.9,13.1-13.1
			C279.8,444.1,273.9,438.3,266.7,438.3z M148.3,104.6c-7.8,0-14.1,6.3-14.1,14.1s6.3,14.1,14.1,14.1s14.1-6.3,14.1-14.1
			S156,104.6,148.3,104.6z M81.1,413.5c-3.2,0-5.9,2.6-5.9,5.9c0,3.2,2.6,5.9,5.9,5.9c3.2,0,5.9-2.6,5.9-5.9
			C87,416.1,84.3,413.5,81.1,413.5z M23.2,289.2c-3.2,0-5.9,2.6-5.9,5.9c0,3.2,2.6,5.9,5.9,5.9c3.2,0,5.9-2.6,5.9-5.9
			C29.1,291.8,26.4,289.2,23.2,289.2z M442.4,148.1c-8.4,0-15.2,6.8-15.2,15.2s6.8,15.2,15.2,15.2c8.4,0,15.2-6.8,15.2-15.2
			S450.8,148.1,442.4,148.1z M279,175.5c-8.4,0-15.2,6.8-15.2,15.2c0,8.4,6.8,15.2,15.2,15.2c8.4,0,15.2-6.8,15.2-15.2
			C294.2,182.3,287.4,175.5,279,175.5z M266.7,438.3c-7.2,0-13.1,5.9-13.1,13.1c0,7.2,5.9,13.1,13.1,13.1s13.1-5.9,13.1-13.1
			C279.8,444.1,273.9,438.3,266.7,438.3z M148.3,104.6c-7.8,0-14.1,6.3-14.1,14.1s6.3,14.1,14.1,14.1s14.1-6.3,14.1-14.1
			S156,104.6,148.3,104.6z M81.1,413.5c-3.2,0-5.9,2.6-5.9,5.9c0,3.2,2.6,5.9,5.9,5.9c3.2,0,5.9-2.6,5.9-5.9
			C87,416.1,84.3,413.5,81.1,413.5z M23.2,289.2c-3.2,0-5.9,2.6-5.9,5.9c0,3.2,2.6,5.9,5.9,5.9c3.2,0,5.9-2.6,5.9-5.9
			C29.1,291.8,26.4,289.2,23.2,289.2z M81.1,413.5c-3.2,0-5.9,2.6-5.9,5.9c0,3.2,2.6,5.9,5.9,5.9c3.2,0,5.9-2.6,5.9-5.9
			C87,416.1,84.3,413.5,81.1,413.5z M266.7,438.3c-7.2,0-13.1,5.9-13.1,13.1c0,7.2,5.9,13.1,13.1,13.1s13.1-5.9,13.1-13.1
			C279.8,444.1,273.9,438.3,266.7,438.3z M279,175.5c-8.4,0-15.2,6.8-15.2,15.2c0,8.4,6.8,15.2,15.2,15.2c8.4,0,15.2-6.8,15.2-15.2
			C294.2,182.3,287.4,175.5,279,175.5z M442.4,148.1c-8.4,0-15.2,6.8-15.2,15.2s6.8,15.2,15.2,15.2c8.4,0,15.2-6.8,15.2-15.2
			S450.8,148.1,442.4,148.1z M442.4,148.1c-8.4,0-15.2,6.8-15.2,15.2s6.8,15.2,15.2,15.2c8.4,0,15.2-6.8,15.2-15.2
			S450.8,148.1,442.4,148.1z M279,175.5c-8.4,0-15.2,6.8-15.2,15.2c0,8.4,6.8,15.2,15.2,15.2c8.4,0,15.2-6.8,15.2-15.2
			C294.2,182.3,287.4,175.5,279,175.5z M266.7,438.3c-7.2,0-13.1,5.9-13.1,13.1c0,7.2,5.9,13.1,13.1,13.1s13.1-5.9,13.1-13.1
			C279.8,444.1,273.9,438.3,266.7,438.3z M81.1,413.5c-3.2,0-5.9,2.6-5.9,5.9c0,3.2,2.6,5.9,5.9,5.9c3.2,0,5.9-2.6,5.9-5.9
			C87,416.1,84.3,413.5,81.1,413.5z M81.1,413.5c-3.2,0-5.9,2.6-5.9,5.9c0,3.2,2.6,5.9,5.9,5.9c3.2,0,5.9-2.6,5.9-5.9
			C87,416.1,84.3,413.5,81.1,413.5z M266.7,438.3c-7.2,0-13.1,5.9-13.1,13.1c0,7.2,5.9,13.1,13.1,13.1s13.1-5.9,13.1-13.1
			C279.8,444.1,273.9,438.3,266.7,438.3z M266.7,438.3c-7.2,0-13.1,5.9-13.1,13.1c0,7.2,5.9,13.1,13.1,13.1s13.1-5.9,13.1-13.1
			C279.8,444.1,273.9,438.3,266.7,438.3z M81.1,413.5c-3.2,0-5.9,2.6-5.9,5.9c0,3.2,2.6,5.9,5.9,5.9c3.2,0,5.9-2.6,5.9-5.9
			C87,416.1,84.3,413.5,81.1,413.5z"/>
		<rect x="334" y="328.4" class="st1" width="49.3" height="4"/>
		<path class="st1" d="M609.3,322.2c-4.9,0-9,3.2-10.3,7.7l-50.6-3.7v-67.7H436l92.9-42.9c1.9,3.2,5.3,5.3,9.3,5.3
			c5.9,0,10.8-4.8,10.8-10.8c0-1.2-0.2-2.5-0.6-3.6l18.1-8.4l-1.8-4l-18.6,8.6c-2-2.1-4.8-3.4-7.8-3.4c-5.9,0-10.8,4.8-10.8,10.8
			c0,0.4,0,0.8,0.1,1.2l-102.1,47.1h-33.6l91.2-64.3l-2.5-3.6l-96.3,67.9h-21.1l68.4-79.1c3.1,2.1,6.9,3.4,11,3.4
			c10.8,0,19.6-8.8,19.6-19.6c0-5.1-2-9.8-5.2-13.2l27.1-31.3l-3.3-2.9l-27,31.3c-3.2-2.2-7-3.5-11.1-3.5
			c-10.8,0-19.6,8.8-19.6,19.6c0,5.1,2,9.8,5.2,13.3l-70.8,82h-8.5l58.6-98.2l-3.8-2.3l-59.9,100.5h-10l58-173.7l-4.2-1.4
			l-58.5,175.1h-9.9l1.5-228.8c5-0.9,8.8-5.3,8.8-10.6c0-5.9-4.8-10.8-10.8-10.8c-5.9,0-10.8,4.8-10.8,10.8c0,5.1,3.6,9.4,8.3,10.5
			l-1.5,228.9h-12.5l-15.2-50c6.8-3.1,11.6-9.9,11.6-17.9c0-10.8-8.8-19.6-19.6-19.6c-1.2,0-2.3,0.1-3.4,0.3L242,61.2l-4.2,1.3
			l33.6,110.1c-7,3-12,10-12,18.1c0,10.8,8.8,19.6,19.6,19.6c1.3,0,2.5-0.1,3.7-0.4l14.9,48.7h-23.5L162.2,130.8
			c2.8-3.2,4.6-7.5,4.6-12.1c0-10.2-8.3-18.5-18.5-18.5c-3.8,0-7.3,1.1-10.2,3.1L94.7,53.7l-3.3,2.9l43.3,49.5
			c-3,3.3-4.9,7.7-4.9,12.5c0,10.2,8.3,18.5,18.5,18.5c4,0,7.6-1.2,10.6-3.4l109.3,124.8h-57.8l-89.5-42.8l-1.9,4l81.2,38.8H88.4
			v38.1l-55.1-3.5c-0.9-4.8-5.1-8.4-10.1-8.4c-5.7,0-10.3,4.6-10.3,10.3c0,5.7,4.6,10.3,10.3,10.3c4.8,0,8.8-3.3,10-7.8l55.2,3.5
			v66.7h100.3l-99,45.7c-1.8-2.8-5-4.5-8.5-4.5c-5.7,0-10.3,4.6-10.3,10.3c0,1,0.1,1.9,0.4,2.8l-22.8,10.5l1.8,4l23-10.6
			c1.9,2.2,4.7,3.6,7.8,3.6c5.7,0,10.3-4.6,10.3-10.3c0-0.6,0-1.1-0.1-1.6l107.9-49.8h30L136.8,433l2.5,3.6l97.4-68.7h26l-133,153.9
			l3.3,2.9l135.5-156.8h9.8L199.6,500l3.8,2.3l80.1-134.4h9l-22.2,66.4c-1.2-0.3-2.5-0.4-3.7-0.4c-9.6,0-17.5,7.9-17.5,17.5
			c0,7,4.2,13.1,10.2,15.9l-32.1,96.2c-0.7-0.2-1.5-0.2-2.2-0.2c-5.9,0-10.8,4.8-10.8,10.8c0,5.9,4.8,10.8,10.8,10.8
			s10.8-4.8,10.8-10.8c0-3.6-1.8-6.9-4.6-8.8l32.3-96.6c1,0.2,2.1,0.3,3.2,0.3c9.6,0,17.5-7.9,17.5-17.5c0-6.8-4-12.8-9.7-15.7
			l22.6-67.8h16.8l-1,148l4.4,0l1-148h12.6L388,555l4.2-1.3l-56.7-185.9h28.4l56.9,65c-3,3.3-4.9,7.7-4.9,12.5
			c0,10.2,8.3,18.5,18.5,18.5c4,0,7.6-1.2,10.6-3.4l50.1,57.2l3.3-2.9l-50.1-57.3c2.9-3.3,4.6-7.5,4.6-12.2
			c0-10.2-8.3-18.5-18.5-18.5c-3.8,0-7.3,1.1-10.2,3.1l-54.4-62.1h59.1l87.2,41.6l1.9-4l-78.8-37.7h109.3v-37.2l50.2,3.6
			c0.7,5.3,5.2,9.4,10.7,9.4c5.9,0,10.8-4.8,10.8-10.8S615.3,322.2,609.3,322.2z M538.2,203.9c3.5,0,6.3,2.8,6.3,6.3
			c0,3.5-2.8,6.4-6.3,6.4c-3.5,0-6.3-2.9-6.3-6.4C531.8,206.8,534.7,203.9,538.2,203.9z M427.2,163.3c0-8.4,6.8-15.2,15.2-15.2
			c8.4,0,15.2,6.8,15.2,15.2s-6.8,15.2-15.2,15.2C434,178.5,427.2,171.6,427.2,163.3z M279,205.9c-8.4,0-15.2-6.8-15.2-15.2
			c0-8.4,6.8-15.2,15.2-15.2c8.4,0,15.2,6.8,15.2,15.2C294.2,199.1,287.4,205.9,279,205.9z M148.3,132.7c-7.8,0-14.1-6.3-14.1-14.1
			s6.3-14.1,14.1-14.1s14.1,6.3,14.1,14.1S156,132.7,148.3,132.7z M23.2,301c-3.2,0-5.9-2.6-5.9-5.9c0-3.2,2.6-5.9,5.9-5.9
			c3.2,0,5.9,2.6,5.9,5.9C29.1,298.3,26.4,301,23.2,301z M81.1,425.2c-3.2,0-5.9-2.6-5.9-5.9c0-3.2,2.6-5.9,5.9-5.9
			c3.2,0,5.9,2.6,5.9,5.9C87,422.6,84.3,425.2,81.1,425.2z M231.4,573.9c0,3.5-2.9,6.3-6.3,6.3c-3.5,0-6.3-2.8-6.3-6.3
			c0-3.5,2.8-6.4,6.3-6.4C228.5,567.6,231.4,570.4,231.4,573.9z M279.8,451.3c0,7.2-5.9,13.1-13.1,13.1s-13.1-5.9-13.1-13.1
			c0-7.2,5.9-13.1,13.1-13.1S279.8,444.1,279.8,451.3z M434.4,431.3c7.8,0,14.1,6.3,14.1,14.1s-6.3,14.1-14.1,14.1
			s-14.1-6.3-14.1-14.1S426.6,431.3,434.4,431.3z M312.3,19.2c0-3.5,2.8-6.3,6.3-6.3s6.3,2.9,6.3,6.3c0,3.5-2.8,6.3-6.3,6.3
			S312.3,22.7,312.3,19.2z M545,364.5H91.8V262H545V364.5z M609.3,339.3c-3.5,0-6.3-2.8-6.3-6.3s2.8-6.3,6.3-6.3
			c3.5,0,6.3,2.8,6.3,6.3S612.8,339.3,609.3,339.3z"/>
		<path class="st1" d="M493.8,298h-26.2v6.9h9.7v28h6.9v-28h9.6V298z M443.1,312.7v-7.8h5.9c1.8,0,3.1,0.4,3.9,1.1
			c0.8,0.7,1.2,1.7,1.2,2.7c0,1.1-0.4,2-1.2,2.8c-0.8,0.8-2.1,1.2-3.9,1.2H443.1z M455,318.6c1.8-0.8,3.3-2.1,4.4-3.9
			c1.1-1.7,1.7-3.7,1.7-5.9c0-1.5-0.3-2.9-0.9-4.2c-0.6-1.3-1.4-2.4-2.3-3.4c-1-1-2.1-1.8-3.4-2.3c-1.3-0.6-2.7-0.8-4.1-0.8h-14.1
			v35h6.9v-13.3h4.2l9.5,13.3h8.5L455,318.6z M409.1,319.6l3.6-8.1l3.6,8.1H409.1z M411.2,297.6L395.6,333h7.6c0.4-1,0.9-2,1.4-3.2
			c0.5-1.1,1-2.2,1.4-3.2h13.3l2.8,6.4h7.6l-15.7-35.3H411.2z M312.6,332.5c1.4-0.5,2.7-1.3,3.7-2.2c1-0.9,1.9-2.1,2.5-3.4
			c0.6-1.3,0.9-2.7,0.9-4.1c0-1.2-0.2-2.3-0.5-3.3c-0.3-1-0.9-2-1.8-2.8c-0.8-0.9-1.9-1.7-3.3-2.5c-1.4-0.8-3-1.6-5-2.3
			c-0.7-0.2-1.4-0.5-2-0.7c-0.6-0.3-1.2-0.6-1.7-0.9c-0.5-0.3-0.9-0.7-1.1-1c-0.3-0.4-0.4-0.8-0.4-1.3c0-1,0.4-1.8,1.2-2.4
			c0.8-0.5,1.9-0.8,3.3-0.8c0.8,0,1.5,0.1,2.3,0.4c0.7,0.3,1.4,0.5,1.9,0.8c0.7,0.4,1.3,0.8,1.9,1.2l4.3-5.4c-0.6-0.5-1.3-1-2.1-1.5
			c-0.8-0.5-1.8-0.9-2.7-1.3c-1-0.4-2-0.7-3-0.9c-1-0.2-2-0.3-2.9-0.3c-1.7,0-3.2,0.3-4.6,0.8c-1.4,0.5-2.6,1.2-3.5,2.1
			c-1,0.9-1.7,2-2.3,3.2c-0.5,1.2-0.8,2.6-0.8,4c0,1.4,0.2,2.6,0.7,3.7c0.5,1.1,1.2,2,2,2.8c0.9,0.8,1.9,1.6,3.1,2.2
			c1.2,0.6,2.5,1.2,3.9,1.7c1.2,0.5,2.2,0.9,3,1.3c0.8,0.4,1.4,0.8,1.9,1.2c0.5,0.4,0.8,0.7,0.9,1c0.2,0.3,0.3,0.6,0.3,0.9
			c0,0.7-0.2,1.3-0.4,1.7c-0.3,0.5-0.7,0.8-1.1,1.1c-0.5,0.3-1,0.5-1.5,0.6c-0.6,0.1-1.1,0.2-1.7,0.2c-0.7,0-1.4-0.1-2.1-0.4
			c-0.7-0.3-1.4-0.6-2.1-1c-0.7-0.4-1.3-0.8-1.8-1.2c-0.5-0.4-0.9-0.8-1.1-1.1l-5.2,4.8c0.3,0.3,0.7,0.8,1.4,1.4
			c0.7,0.7,1.5,1.3,2.4,1.9h0c1.3,0.8,2.6,1.4,4,1.8c1.4,0.4,2.9,0.6,4.4,0.6C309.6,333.3,311.2,333.1,312.6,332.5 M259.4,333h6.9
			v-20.6l18.8,20.9h3.1V298h-6.9v20.6l-18.9-21h-3V333z M249.4,298h-6.9v35h6.9V298z M215.6,319.6l3.6-8.1l3.6,8.1H215.6z
			 M217.7,297.6L202.1,333h7.6c0.4-1,0.9-2,1.4-3.2c0.5-1.1,1-2.2,1.4-3.2h13.3l2.8,6.4h7.6l-15.7-35.3H217.7z M177.3,312.7v-7.8
			h5.9c1.8,0,3.1,0.4,3.9,1.1c0.8,0.7,1.2,1.7,1.2,2.7c0,1.1-0.4,2-1.2,2.8c-0.8,0.8-2.1,1.2-3.9,1.2H177.3z M189.1,318.6
			c1.8-0.8,3.3-2.1,4.4-3.9c1.1-1.7,1.7-3.7,1.7-5.9c0-1.5-0.3-2.9-0.9-4.2c-0.6-1.3-1.4-2.4-2.3-3.4s-2.1-1.8-3.4-2.3
			c-1.3-0.6-2.7-0.8-4.1-0.8h-14.1v35h6.9v-13.3h4.2l9.5,13.3h8.5L189.1,318.6z M143.1,326v-7.4h6.3c1,0,1.9,0.1,2.6,0.3
			c0.7,0.2,1.2,0.5,1.6,0.9c0.4,0.3,0.7,0.8,0.8,1.2c0.2,0.5,0.3,0.9,0.3,1.4c0,1-0.4,1.8-1.2,2.5c-0.8,0.7-2.2,1.1-4.1,1.1H143.1z
			 M143.1,304.9h6.3c1.2,0,2.2,0.3,3,1c0.8,0.7,1.1,1.5,1.1,2.5c0,1-0.4,1.7-1.1,2.3c-0.7,0.6-1.7,0.9-3,0.9h-6.3V304.9z M160,304
			c-0.5-1.2-1.3-2.2-2.3-3.1c-1-0.9-2.1-1.6-3.4-2.1c-1.3-0.5-2.7-0.8-4.2-0.8h-14v35h14.2c2.3,0,4.1-0.3,5.7-0.9
			c1.5-0.6,2.7-1.4,3.6-2.4c0.9-1,1.6-2.1,1.9-3.4c0.4-1.2,0.6-2.5,0.6-3.8c0-0.7-0.1-1.4-0.3-2.1c-0.2-0.7-0.5-1.4-0.9-2.1
			c-0.4-0.7-0.9-1.3-1.5-1.9c-0.6-0.6-1.4-1.1-2.2-1.5c1.4-1,2.4-2.2,2.9-3.5c0.5-1.3,0.8-2.5,0.8-3.7
			C160.9,306.4,160.6,305.2,160,304"/>
		<path class="st1" d="M363.7,322.3h4.7v-13.9l12.7,14.2h2.1v-23.9h-4.7v14l-12.8-14.2h-2.1V322.3z M348.8,303.7
			c0.9,0.4,1.7,0.9,2.3,1.6c0.7,0.7,1.2,1.5,1.6,2.4c0.4,0.9,0.6,1.9,0.6,2.9c0,1-0.2,2-0.6,2.9c-0.4,0.9-0.9,1.7-1.6,2.3
			c-0.7,0.7-1.4,1.2-2.3,1.6c-0.9,0.4-1.8,0.6-2.9,0.6c-1,0-2-0.2-2.9-0.6c-0.9-0.4-1.7-0.9-2.3-1.6c-0.7-0.7-1.2-1.4-1.6-2.3
			c-0.4-0.9-0.6-1.8-0.6-2.9c0-1,0.2-2,0.6-2.9c0.4-0.9,0.9-1.7,1.6-2.4c0.7-0.7,1.5-1.2,2.3-1.6c0.9-0.4,1.8-0.6,2.9-0.6
			C346.9,303.1,347.9,303.3,348.8,303.7 M350.8,321.6c1.5-0.7,2.7-1.6,3.8-2.7c1.1-1.1,1.9-2.4,2.5-3.9c0.6-1.5,0.9-3,0.9-4.5
			c0-1.8-0.3-3.4-1-4.9c-0.7-1.5-1.6-2.8-2.7-3.8c-1.1-1.1-2.4-1.9-3.9-2.5c-1.5-0.6-3-0.9-4.5-0.9c-1.7,0-3.3,0.3-4.8,1
			c-1.5,0.7-2.7,1.6-3.8,2.7c-1.1,1.1-1.9,2.4-2.5,3.9c-0.6,1.5-0.9,3-0.9,4.6c0,1.8,0.3,3.5,1,5c0.7,1.5,1.6,2.8,2.7,3.8
			c1.1,1,2.4,1.9,3.9,2.4c1.4,0.6,2.9,0.8,4.4,0.8C347.7,322.5,349.3,322.2,350.8,321.6"/>
		<rect x="12.9" y="8.5" class="st0" width="607.2" height="576.2"/>
	</g>
</g>
</svg>
